<?xml version="1.0" encoding="utf-8"?>
<!-- Generator: Adobe Illustrator 25.4.1, SVG Export Plug-In . SVG Version: 6.00 Build 0)  -->
<svg version="1.1" id="Layer_1" xmlns="http://www.w3.org/2000/svg" xmlns:xlink="http://www.w3.org/1999/xlink" x="0px" y="0px"
	 viewBox="0 0 157.2 30.9" style="enable-background:new 0 0 157.2 30.9;" xml:space="preserve">
<style type="text/css">
	.st0{fill:#FFFFFF;}
	.st1{font-family:'Raleway-Bold';}
	.st2{font-size:21.8839px;}
	.st3{fill:url(#SVGID_1_);}
	.st4{fill:url(#SVGID_00000145763297497723591340000014876902289364914340_);}
	.st5{fill:url(#SVGID_00000070823671473714636690000006061828207518213779_);}
	.st6{fill:url(#SVGID_00000004505291506465513520000003183495253503575686_);}
	.st7{fill:url(#SVGID_00000123434169907692507840000015364837334487894952_);}
	.st8{fill:url(#SVGID_00000096061730384370724270000007855875462125300636_);}
	.st9{fill:url(#SVGID_00000107548737824766226100000014426529420273344407_);}
	.st10{fill:url(#SVGID_00000002369816863437208170000005948517545078427581_);}
	.st11{fill:url(#SVGID_00000105420391231254017450000016059262503013184917_);}
	.st12{fill:url(#SVGID_00000168811972974937864510000013681685951166845850_);}
	.st13{fill:url(#SVGID_00000167393745006537204680000007111049528323928998_);}
	.st14{fill:url(#SVGID_00000013897232780734700720000001823109724845180604_);}
	.st15{fill:url(#SVGID_00000058555427109509164840000015163236610843572618_);}
	.st16{fill:url(#SVGID_00000101802145639076052490000000795863348095215010_);}
	.st17{fill:url(#SVGID_00000067937828867745916430000016154983536111992252_);}
	.st18{fill:url(#SVGID_00000002366440962457574680000017975696982553388222_);}
	.st19{fill:url(#SVGID_00000078733383628320659570000002427154770213783950_);}
	.st20{fill:url(#SVGID_00000096742568081802945840000014610833520714304917_);}
	.st21{fill:url(#SVGID_00000153670259417411756840000012393168692026416828_);}
	.st22{fill:url(#SVGID_00000059307562041559125920000017254530840609567645_);}
</style>
<g>
	<text transform="matrix(1 0 0 1 33.7978 22.3233)" class="st0 st1 st2">DAILY POST</text>
	<g>
		<linearGradient id="SVGID_1_" gradientUnits="userSpaceOnUse" x1="7.1706" y1="5.527" x2="13.5433" y2="5.527">
			<stop  offset="0" style="stop-color:#877EFF"/>
			<stop  offset="0.4615" style="stop-color:#685DFF"/>
			<stop  offset="1" style="stop-color:#3121FF"/>
		</linearGradient>
		<path class="st3" d="M8.3,5.7C7.9,6.3,7.5,6.9,7.2,7.5C8.2,8.1,9.4,8.6,10.7,9c0-0.2,0.1-0.4,0.1-0.6c0.4-2.1,1.1-3.9,1.8-5.2
			c0.3-0.5,0.6-0.8,0.9-1.2c-0.7,0.2-1.3,0.4-1.9,0.8C10.4,3.5,9.3,4.5,8.3,5.7z"/>
		
			<linearGradient id="SVGID_00000165217369873771856910000012464282661912859527_" gradientUnits="userSpaceOnUse" x1="5.18" y1="4.5143" x2="11.581" y2="4.5143">
			<stop  offset="0" style="stop-color:#877EFF"/>
			<stop  offset="0.4615" style="stop-color:#685DFF"/>
			<stop  offset="1" style="stop-color:#3121FF"/>
		</linearGradient>
		<path style="fill:url(#SVGID_00000165217369873771856910000012464282661912859527_);" d="M6.5,7.1c1.2-2.1,2.8-3.9,4.7-4.9
			C11.4,2.1,11.5,2,11.6,2C9.1,2.7,6.9,4.1,5.2,6c0.2,0.2,0.5,0.4,0.7,0.6C6.1,6.8,6.3,6.9,6.5,7.1z"/>
		
			<linearGradient id="SVGID_00000103986561448614343350000005714990177935931800_" gradientUnits="userSpaceOnUse" x1="10.9311" y1="18.4537" x2="20.3891" y2="18.4537">
			<stop  offset="0" style="stop-color:#877EFF"/>
			<stop  offset="0.4615" style="stop-color:#685DFF"/>
			<stop  offset="1" style="stop-color:#3121FF"/>
		</linearGradient>
		<path style="fill:url(#SVGID_00000103986561448614343350000005714990177935931800_);" d="M15.5,20.5c1.6,0,3,0.2,4.5,0.5
			c0.3-1.6,0.4-3.3,0.4-5.2h-9.5c0,1.8,0.2,3.5,0.4,5.1C12.7,20.7,14.1,20.5,15.5,20.5z"/>
		
			<linearGradient id="SVGID_00000095324832008131025610000004888638254987888298_" gradientUnits="userSpaceOnUse" x1="5.2147" y1="11.5873" x2="10.5967" y2="11.5873">
			<stop  offset="0" style="stop-color:#877EFF"/>
			<stop  offset="0.4615" style="stop-color:#685DFF"/>
			<stop  offset="1" style="stop-color:#3121FF"/>
		</linearGradient>
		<path style="fill:url(#SVGID_00000095324832008131025610000004888638254987888298_);" d="M7.6,8.5C7.4,8.4,7.1,8.2,6.9,8.1
			c-1,2-1.6,4.4-1.6,7h4.9c0-1.9,0.2-3.7,0.4-5.4C9.5,9.4,8.5,9,7.6,8.5z"/>
		
			<linearGradient id="SVGID_00000049926389033305019470000011371304269917922178_" gradientUnits="userSpaceOnUse" x1="5.2147" y1="19.3134" x2="10.5809" y2="19.3134">
			<stop  offset="0" style="stop-color:#877EFF"/>
			<stop  offset="0.4615" style="stop-color:#685DFF"/>
			<stop  offset="1" style="stop-color:#3121FF"/>
		</linearGradient>
		<path style="fill:url(#SVGID_00000049926389033305019470000011371304269917922178_);" d="M5.2,15.9c0.1,2.5,0.6,4.9,1.6,6.9
			c1.1-0.7,2.4-1.2,3.8-1.6c-0.3-1.6-0.4-3.4-0.4-5.3C10.2,15.9,5.2,15.9,5.2,15.9z"/>
		
			<linearGradient id="SVGID_00000078035609620420804880000014980256773232077469_" gradientUnits="userSpaceOnUse" x1="11.4643" y1="5.7352" x2="19.8591" y2="5.7352">
			<stop  offset="0" style="stop-color:#877EFF"/>
			<stop  offset="0.4615" style="stop-color:#685DFF"/>
			<stop  offset="1" style="stop-color:#3121FF"/>
		</linearGradient>
		<path style="fill:url(#SVGID_00000078035609620420804880000014980256773232077469_);" d="M11.5,9.2c1.3,0.3,2.7,0.5,4.2,0.5
			s2.9-0.2,4.2-0.5c0-0.2-0.1-0.5-0.1-0.7c-0.4-2-1-3.7-1.7-4.9c-0.5-0.8-1-1.3-1.5-1.6c-0.3-0.2-0.6-0.2-0.8-0.2S15.1,1.8,14.8,2
			c-0.3,0.2-0.6,0.4-0.9,0.7c-0.6,0.7-1.1,1.7-1.6,2.9C12,6.7,11.7,7.9,11.5,9.2z"/>
		
			<linearGradient id="SVGID_00000087382992691739200290000005452201294846774661_" gradientUnits="userSpaceOnUse" x1="19.7393" y1="4.5143" x2="26.1403" y2="4.5143">
			<stop  offset="0" style="stop-color:#877EFF"/>
			<stop  offset="0.4615" style="stop-color:#685DFF"/>
			<stop  offset="1" style="stop-color:#3121FF"/>
		</linearGradient>
		<path style="fill:url(#SVGID_00000087382992691739200290000005452201294846774661_);" d="M23.6,5.3c0.4,0.6,0.8,1.2,1.2,1.8
			c0.5-0.3,0.9-0.7,1.3-1c-1.7-1.9-3.9-3.3-6.4-4.1C19.8,2,20,2.1,20.1,2.1C21.4,2.9,22.6,3.9,23.6,5.3z"/>
		
			<linearGradient id="SVGID_00000183226275252523860210000005208889338685030037_" gradientUnits="userSpaceOnUse" x1="20.7236" y1="11.5857" x2="26.1056" y2="11.5857">
			<stop  offset="0" style="stop-color:#877EFF"/>
			<stop  offset="0.4615" style="stop-color:#685DFF"/>
			<stop  offset="1" style="stop-color:#3121FF"/>
		</linearGradient>
		<path style="fill:url(#SVGID_00000183226275252523860210000005208889338685030037_);" d="M24.5,8.1c-1.1,0.7-2.4,1.2-3.7,1.6
			c0.3,1.7,0.4,3.5,0.4,5.4h4.9C26.1,12.5,25.5,10.1,24.5,8.1z"/>
		
			<linearGradient id="SVGID_00000176002751684620668510000005814073655483464854_" gradientUnits="userSpaceOnUse" x1="17.777" y1="5.5301" x2="24.1528" y2="5.5301">
			<stop  offset="0" style="stop-color:#877EFF"/>
			<stop  offset="0.4615" style="stop-color:#685DFF"/>
			<stop  offset="1" style="stop-color:#3121FF"/>
		</linearGradient>
		<path style="fill:url(#SVGID_00000176002751684620668510000005814073655483464854_);" d="M19.6,5.4c0.4,1.1,0.7,2.3,1,3.7
			c1-0.3,1.9-0.7,2.8-1.1c0.3-0.1,0.5-0.3,0.8-0.4c-1.1-2.1-2.7-3.7-4.5-4.7c-0.6-0.3-1.3-0.6-1.9-0.8c0.1,0.1,0.1,0.1,0.2,0.2
			C18.6,3,19.2,4.1,19.6,5.4z"/>
		
			<linearGradient id="SVGID_00000042010111474035761110000001050858250994044818_" gradientUnits="userSpaceOnUse" x1="20.7236" y1="19.3733" x2="26.1056" y2="19.3733">
			<stop  offset="0" style="stop-color:#877EFF"/>
			<stop  offset="0.4615" style="stop-color:#685DFF"/>
			<stop  offset="1" style="stop-color:#3121FF"/>
		</linearGradient>
		<path style="fill:url(#SVGID_00000042010111474035761110000001050858250994044818_);" d="M20.7,21.3c1,0.3,2,0.7,2.8,1.1
			c0.3,0.2,0.6,0.3,0.9,0.5c1-2,1.6-4.4,1.7-7h-4.9C21.1,17.8,21,19.6,20.7,21.3z"/>
		
			<linearGradient id="SVGID_00000009558111531673744340000017912823407949129140_" gradientUnits="userSpaceOnUse" x1="10.928" y1="12.4912" x2="20.386" y2="12.4912">
			<stop  offset="0" style="stop-color:#877EFF"/>
			<stop  offset="0.4615" style="stop-color:#685DFF"/>
			<stop  offset="1" style="stop-color:#3121FF"/>
		</linearGradient>
		<path style="fill:url(#SVGID_00000009558111531673744340000017912823407949129140_);" d="M15.7,10.4c-1.5,0-2.9-0.2-4.3-0.5
			c-0.3,1.6-0.4,3.3-0.4,5.2h9.5c0-1.8-0.2-3.6-0.4-5.2C18.6,10.2,17.2,10.4,15.7,10.4z"/>
		
			<linearGradient id="SVGID_00000091723263238862713310000015900870366365823633_" gradientUnits="userSpaceOnUse" x1="19.7361" y1="26.4526" x2="26.0961" y2="26.4526">
			<stop  offset="0" style="stop-color:#877EFF"/>
			<stop  offset="0.4615" style="stop-color:#685DFF"/>
			<stop  offset="1" style="stop-color:#3121FF"/>
		</linearGradient>
		<path style="fill:url(#SVGID_00000091723263238862713310000015900870366365823633_);" d="M24.8,23.9c-1.2,2.1-2.8,3.8-4.7,4.9
			c-0.1,0.1-0.2,0.1-0.3,0.2c2.5-0.7,4.7-2.2,6.4-4c-0.3-0.2-0.5-0.5-0.8-0.7C25.1,24.2,25,24,24.8,23.9z"/>
		
			<linearGradient id="SVGID_00000085250211606174899300000010311988347699942552_" gradientUnits="userSpaceOnUse" x1="25.1055" y1="20.1573" x2="29.7588" y2="20.1573">
			<stop  offset="0" style="stop-color:#877EFF"/>
			<stop  offset="0.4615" style="stop-color:#685DFF"/>
			<stop  offset="1" style="stop-color:#3121FF"/>
		</linearGradient>
		<path style="fill:url(#SVGID_00000085250211606174899300000010311988347699942552_);" d="M25.1,23.3c0.5,0.4,1,0.7,1.4,1.1
			c1.9-2.3,3.1-5.3,3.2-8.6h-2.9C26.8,18.6,26.2,21.2,25.1,23.3z"/>
		
			<linearGradient id="SVGID_00000052100851934496175630000016832252831541227145_" gradientUnits="userSpaceOnUse" x1="25.1213" y1="10.8128" x2="29.762" y2="10.8128">
			<stop  offset="0" style="stop-color:#877EFF"/>
			<stop  offset="0.4615" style="stop-color:#685DFF"/>
			<stop  offset="1" style="stop-color:#3121FF"/>
		</linearGradient>
		<path style="fill:url(#SVGID_00000052100851934496175630000016832252831541227145_);" d="M25.8,7.2c-0.2,0.2-0.5,0.3-0.7,0.5
			c1.1,2.2,1.7,4.7,1.8,7.4h2.9c-0.1-3.2-1.3-6.2-3.2-8.5C26.3,6.8,26.1,7,25.8,7.2z"/>
		
			<linearGradient id="SVGID_00000070798271894621484660000013776990043846869940_" gradientUnits="userSpaceOnUse" x1="11.4485" y1="25.1907" x2="19.8591" y2="25.1907">
			<stop  offset="0" style="stop-color:#877EFF"/>
			<stop  offset="0.4615" style="stop-color:#685DFF"/>
			<stop  offset="1" style="stop-color:#3121FF"/>
		</linearGradient>
		<path style="fill:url(#SVGID_00000070798271894621484660000013776990043846869940_);" d="M19.9,21.7c-1.4-0.3-2.8-0.5-4.3-0.5
			c-1.4,0-2.8,0.2-4.1,0.5c0,0.3,0.1,0.5,0.1,0.8c0.4,2,1,3.7,1.7,4.9c0.5,0.8,1,1.3,1.5,1.6c0.3,0.2,0.6,0.2,0.8,0.2
			c0.3,0,0.6-0.1,0.8-0.2s0.6-0.4,0.9-0.7c0.6-0.7,1.1-1.7,1.6-2.9C19.3,24.3,19.6,23.1,19.9,21.7z"/>
		
			<linearGradient id="SVGID_00000079461328266540942900000011845424292239071132_" gradientUnits="userSpaceOnUse" x1="17.7801" y1="25.4226" x2="24.1339" y2="25.4226">
			<stop  offset="0" style="stop-color:#877EFF"/>
			<stop  offset="0.4615" style="stop-color:#685DFF"/>
			<stop  offset="1" style="stop-color:#3121FF"/>
		</linearGradient>
		<path style="fill:url(#SVGID_00000079461328266540942900000011845424292239071132_);" d="M23,25.2c0.4-0.5,0.8-1.1,1.1-1.7
			c-1.1-0.6-2.2-1.2-3.5-1.6c0,0.2-0.1,0.4-0.1,0.6c-0.4,2.1-1.1,3.9-1.8,5.2c-0.3,0.5-0.6,0.8-0.9,1.2c0.7-0.2,1.3-0.4,1.9-0.8
			C20.9,27.4,22.1,26.5,23,25.2z"/>
		
			<linearGradient id="SVGID_00000078034191921540450080000001719348036130106300_" gradientUnits="userSpaceOnUse" x1="7.117" y1="25.38" x2="13.5433" y2="25.38">
			<stop  offset="0" style="stop-color:#877EFF"/>
			<stop  offset="0.4615" style="stop-color:#685DFF"/>
			<stop  offset="1" style="stop-color:#3121FF"/>
		</linearGradient>
		<path style="fill:url(#SVGID_00000078034191921540450080000001719348036130106300_);" d="M11.7,25.6c-0.4-1.1-0.7-2.4-1-3.7
			c-1,0.3-2,0.7-2.9,1.1c-0.2,0.1-0.5,0.2-0.7,0.4c1.1,2.1,2.7,3.8,4.5,4.8c0.6,0.3,1.3,0.6,1.9,0.8c-0.1-0.1-0.1-0.1-0.2-0.2
			C12.7,28,12.1,26.9,11.7,25.6z"/>
		
			<linearGradient id="SVGID_00000111912357720611246210000013957643744724994960_" gradientUnits="userSpaceOnUse" x1="5.1011" y1="26.3832" x2="11.581" y2="26.3832">
			<stop  offset="0" style="stop-color:#877EFF"/>
			<stop  offset="0.4615" style="stop-color:#685DFF"/>
			<stop  offset="1" style="stop-color:#3121FF"/>
		</linearGradient>
		<path style="fill:url(#SVGID_00000111912357720611246210000013957643744724994960_);" d="M7.7,25.7c-0.5-0.6-0.9-1.2-1.2-1.9
			c-0.5,0.3-0.9,0.7-1.4,1c1.7,1.9,3.9,3.4,6.5,4.2c-0.1-0.1-0.2-0.1-0.3-0.2C9.9,28.1,8.7,27,7.7,25.7z"/>
		
			<linearGradient id="SVGID_00000018953497617649353220000011300661360296935048_" gradientUnits="userSpaceOnUse" x1="1.5583" y1="20.0863" x2="6.1485" y2="20.0863">
			<stop  offset="0" style="stop-color:#877EFF"/>
			<stop  offset="0.4615" style="stop-color:#685DFF"/>
			<stop  offset="1" style="stop-color:#3121FF"/>
		</linearGradient>
		<path style="fill:url(#SVGID_00000018953497617649353220000011300661360296935048_);" d="M6.1,23.2c-1-2.1-1.7-4.6-1.7-7.3H1.6
			c0.1,3.2,1.2,6.1,3.1,8.4c0.2-0.2,0.4-0.4,0.7-0.6C5.6,23.6,5.9,23.4,6.1,23.2z"/>
		
			<linearGradient id="SVGID_00000138541539829259094260000011859484536174411958_" gradientUnits="userSpaceOnUse" x1="1.5583" y1="10.8144" x2="6.1958" y2="10.8144">
			<stop  offset="0" style="stop-color:#877EFF"/>
			<stop  offset="0.4615" style="stop-color:#685DFF"/>
			<stop  offset="1" style="stop-color:#3121FF"/>
		</linearGradient>
		<path style="fill:url(#SVGID_00000138541539829259094260000011859484536174411958_);" d="M6.2,7.7c-0.5-0.4-1-0.7-1.5-1.1
			c-1.9,2.3-3.1,5.3-3.2,8.5h2.9C4.5,12.4,5.1,9.8,6.2,7.7z"/>
	</g>
</g>
</svg>
