<svg id="Layer_1" data-name="Layer 1" xmlns="http://www.w3.org/2000/svg" viewBox="0 0 153.79 154.16"><path d="M154.7,65.29C148.39,28.43,113.24-4.22,66.82,3.16,21.14,10.42-6,52.39,4.28,98.63c8.81,33.31,38.87,57.12,72.41,57.63C126.33,157,163.08,114.23,154.7,65.29ZM59.64,40.6h7.82V54.07H81.93V40.54h7.64V75.88H82V62H67.71V76H59.64ZM23.07,54.42H33.71V52.69c0-4.58,0-8.21,0-12.13H41.6V54.31H52.37V61.6H41.76V76H34V61.85H23.07Zm29.54,53.2c-.38,5.1-3.23,8.24-8,9.67-6.47,2-14,.06-20.33-5.18L28,107.56c4.5,1.2,8.35,2.53,12.3,3.09,1.28.18,2.84-1.64,4.27-2.55-1.05-1.28-1.87-3-3.21-3.73-1.84-1-4.07-1.35-6.14-2-7.4-2.22-10-5.31-9.58-11.3q.63-8.62,11.67-9.94c5.27,1,9.65,2.08,14.92,3.34L48,91c-3.7-1-6.94-2.18-10.28-2.54-1.24-.13-2.7,1.73-4.06,2.68,1,1.14,1.78,2.79,3,3.34,3,1.31,6.34,1.95,9.42,3.15C50.59,99.33,53,102.62,52.61,107.62Zm37,1c-.36,2.74-3.84,5.06-5.89,7.58-15.22,5.19-24.05-1-24.06-16.15,0-6,0-11.95,0-18.25h8c0,6.83-.06,13.61,0,20.39,0,4,1.37,7.26,5.76,8.21,5.34,1.14,9.18-1.78,9.36-7.44.22-7,0-13.92,0-21.18h8.46C90.81,90.65,90.77,99.72,89.59,108.64Zm44.9,8.53h-7.6c0-5.69.06-11.3,0-16.91a23.86,23.86,0,0,0-.9-4.35l-9,13.58c-3.21-4.72-6.24-9.19-9.92-14.63v22.32H99.17V81.92c5-1.06,9.17-1.1,11.67,4.67,1.49,3.44,3.94,6.47,6.14,10,2.09-3.36,4.3-6.16,5.69-9.31,2.34-5.34,6.17-6.78,11.82-5.35Zm0-48.59H99.09V61.25h35.42Zm0-13.91H99.09V47.34h35.42Z" transform="translate(-2.11 -2.11)" style="fill:#080505"/></svg>